<svg width="27" height="27" viewBox="0 0 27 27" fill="none" xmlns="http://www.w3.org/2000/svg">
<path d="M13.0753 7.4981C11.8886 7.4981 10.7285 7.85 9.74183 8.50929C8.75514 9.16858 7.9861 10.1056 7.53198 11.202C7.07785 12.2984 6.95903 13.5048 7.19054 14.6686C7.42205 15.8325 7.9935 16.9016 8.83261 17.7407C9.67173 18.5799 10.7408 19.1513 11.9047 19.3828C13.0686 19.6143 14.275 19.4955 15.3714 19.0414C16.4677 18.5873 17.4048 17.8182 18.0641 16.8315C18.7234 15.8448 19.0753 14.6848 19.0753 13.4981C19.0736 11.9073 18.4409 10.3822 17.3161 9.25729C16.1912 8.13243 14.666 7.49976 13.0753 7.4981ZM13.0753 17.4981C12.2841 17.4981 11.5108 17.2635 10.853 16.824C10.1952 16.3845 9.68248 15.7597 9.37973 15.0288C9.07698 14.2979 8.99777 13.4937 9.15211 12.7177C9.30645 11.9418 9.68742 11.2291 10.2468 10.6697C10.8062 10.1103 11.519 9.7293 12.2949 9.57496C13.0708 9.42062 13.8751 9.49984 14.606 9.80259C15.3369 10.1053 15.9616 10.618 16.4011 11.2758C16.8407 11.9336 17.0753 12.707 17.0753 13.4981C17.0753 14.559 16.6538 15.5764 15.9037 16.3265C15.1535 17.0767 14.1361 17.4981 13.0753 17.4981ZM24.0753 13.7681C24.0803 13.5881 24.0803 13.4081 24.0753 13.2281L25.9403 10.8981C26.038 10.7758 26.1057 10.6322 26.1379 10.4789C26.17 10.3256 26.1657 10.1669 26.1253 10.0156C25.8195 8.86636 25.3622 7.76292 24.7653 6.73435C24.6871 6.59975 24.5786 6.48525 24.4484 6.39997C24.3182 6.31468 24.1699 6.26097 24.0153 6.2431L21.0503 5.9131C20.9269 5.7831 20.8019 5.6581 20.6753 5.5381L20.3253 2.5656C20.3073 2.41087 20.2533 2.26248 20.1678 2.13227C20.0823 2.00205 19.9676 1.89362 19.8328 1.8156C18.8038 1.21979 17.7005 0.762897 16.5515 0.456854C16.4001 0.4166 16.2414 0.412483 16.0881 0.444834C15.9348 0.477186 15.7912 0.5451 15.669 0.643104L13.3453 2.4981C13.1653 2.4981 12.9853 2.4981 12.8053 2.4981L10.4753 0.636854C10.3529 0.539064 10.2093 0.471376 10.056 0.439243C9.90275 0.40711 9.74406 0.411429 9.59275 0.451854C8.44369 0.758138 7.34032 1.21546 6.3115 1.81185C6.1769 1.89001 6.0624 1.99851 5.97712 2.12871C5.89183 2.25892 5.83812 2.40723 5.82025 2.56185L5.49025 5.53185C5.36025 5.65602 5.23525 5.78102 5.11525 5.90685L2.14275 6.2481C1.98802 6.26611 1.83963 6.32001 1.70942 6.40552C1.5792 6.49102 1.47077 6.60577 1.39275 6.7406C0.796936 7.76956 0.340045 8.87291 0.0340024 10.0219C-0.00625148 10.1733 -0.0103686 10.332 0.0219827 10.4853C0.0543341 10.6386 0.122249 10.7821 0.220252 10.9044L2.07525 13.2281C2.07525 13.4081 2.07525 13.5881 2.07525 13.7681L0.214002 16.0981C0.116213 16.2204 0.0485248 16.364 0.0163913 16.5173C-0.0157421 16.6706 -0.0114225 16.8293 0.0290023 16.9806C0.334739 18.1299 0.792089 19.2333 1.389 20.2619C1.46716 20.3965 1.57566 20.511 1.70586 20.5962C1.83607 20.6815 1.98438 20.7352 2.139 20.7531L5.104 21.0831C5.22817 21.2131 5.35317 21.3381 5.479 21.4581L5.82525 24.4306C5.84325 24.5853 5.89716 24.7337 5.98266 24.8639C6.06817 24.9942 6.18292 25.1026 6.31775 25.1806C7.34671 25.7764 8.45005 26.2333 9.599 26.5394C9.75041 26.5796 9.90915 26.5837 10.0624 26.5514C10.2157 26.519 10.3593 26.4511 10.4815 26.3531L12.8053 24.4981C12.9853 24.5031 13.1653 24.5031 13.3453 24.4981L15.6753 26.3631C15.7976 26.4609 15.9412 26.5286 16.0945 26.5607C16.2478 26.5928 16.4064 26.5885 16.5578 26.5481C17.707 26.2424 18.8104 25.785 19.839 25.1881C19.9736 25.1099 20.0881 25.0014 20.1734 24.8712C20.2587 24.741 20.3124 24.5927 20.3303 24.4381L20.6603 21.4731C20.7903 21.3498 20.9153 21.2248 21.0353 21.0981L24.0078 20.7481C24.1625 20.7301 24.3109 20.6762 24.4411 20.5907C24.5713 20.5052 24.6797 20.3904 24.7578 20.2556C25.3536 19.2266 25.8105 18.1233 26.1165 16.9744C26.1568 16.8229 26.1609 16.6642 26.1285 16.5109C26.0962 16.3576 26.0283 16.2141 25.9303 16.0919L24.0753 13.7681ZM22.0628 12.9556C22.084 13.317 22.084 13.6792 22.0628 14.0406C22.0479 14.288 22.1254 14.5321 22.2803 14.7256L24.054 16.9419C23.8505 17.5887 23.5899 18.2162 23.2753 18.8169L20.4503 19.1369C20.2042 19.1642 19.9771 19.2817 19.8128 19.4669C19.5721 19.7375 19.3159 19.9937 19.0453 20.2344C18.8601 20.3987 18.7426 20.6258 18.7153 20.8719L18.4015 23.6944C17.8009 24.0091 17.1734 24.2697 16.5265 24.4731L14.309 22.6994C14.1316 22.5576 13.9111 22.4804 13.684 22.4806H13.624C13.2626 22.5019 12.9004 22.5019 12.539 22.4806C12.2916 22.4657 12.0475 22.5432 11.854 22.6981L9.6315 24.4731C8.98467 24.2696 8.3572 24.009 7.7565 23.6944L7.4365 20.8731C7.40919 20.6271 7.29161 20.3999 7.1065 20.2356C6.83589 19.995 6.57962 19.7387 6.339 19.4681C6.17467 19.283 5.94752 19.1654 5.7015 19.1381L2.879 18.8231C2.56424 18.2225 2.30363 17.595 2.10025 16.9481L3.874 14.7306C4.02888 14.5371 4.10639 14.293 4.0915 14.0456C4.07025 13.6842 4.07025 13.322 4.0915 12.9606C4.10639 12.7132 4.02888 12.4691 3.874 12.2756L2.10025 10.0544C2.30378 9.40752 2.56439 8.78005 2.879 8.17935L5.70025 7.85935C5.94627 7.83205 6.17342 7.71446 6.33775 7.52935C6.57837 7.25874 6.83464 7.00247 7.10525 6.76185C7.2911 6.59741 7.40916 6.36975 7.4365 6.1231L7.75025 3.30185C8.35088 2.98709 8.97836 2.72648 9.62525 2.5231L11.8428 4.29685C12.0362 4.45174 12.2804 4.52925 12.5278 4.51435C12.8891 4.4931 13.2514 4.4931 13.6128 4.51435C13.8601 4.52925 14.1043 4.45174 14.2978 4.29685L16.519 2.5231C17.1658 2.72664 17.7933 2.98724 18.394 3.30185L18.714 6.1231C18.7413 6.36912 18.8589 6.59627 19.044 6.7606C19.3146 7.00122 19.5709 7.25749 19.8115 7.5281C19.9758 7.71321 20.203 7.83079 20.449 7.8581L23.2715 8.17185C23.5863 8.77248 23.8469 9.39996 24.0503 10.0469L22.2765 12.2644C22.1201 12.4595 22.0425 12.7061 22.059 12.9556H22.0628Z" fill="#1C1C1C"/>
</svg>
