<svg width="14" height="14" viewBox="0 0 14 14" fill="none" xmlns="http://www.w3.org/2000/svg">
<path d="M10.8101 10.1921C10.8917 10.2741 10.9376 10.3851 10.9376 10.5008C10.9376 10.6165 10.8917 10.7275 10.8101 10.8095C10.7505 10.868 9.34172 12.25 7 12.25C4.95523 12.25 3.47102 11.025 2.625 10.0707V11.375C2.625 11.491 2.57891 11.6023 2.49686 11.6844C2.41481 11.7664 2.30353 11.8125 2.1875 11.8125C2.07147 11.8125 1.96019 11.7664 1.87814 11.6844C1.79609 11.6023 1.75 11.491 1.75 11.375V8.75C1.75 8.63397 1.79609 8.52269 1.87814 8.44064C1.96019 8.35859 2.07147 8.3125 2.1875 8.3125H4.8125C4.92853 8.3125 5.03981 8.35859 5.12186 8.44064C5.20391 8.52269 5.25 8.63397 5.25 8.75C5.25 8.86603 5.20391 8.97731 5.12186 9.05936C5.03981 9.14141 4.92853 9.1875 4.8125 9.1875H3.03187C3.70562 10.027 5.08594 11.375 7 11.375C8.96875 11.375 10.1795 10.2014 10.1916 10.1894C10.274 10.1078 10.3854 10.0622 10.5014 10.0627C10.6174 10.0632 10.7284 10.1098 10.8101 10.1921ZM11.8125 2.1875C11.6965 2.1875 11.5852 2.23359 11.5031 2.31564C11.4211 2.39769 11.375 2.50897 11.375 2.625V3.9293C10.529 2.975 9.04477 1.75 7 1.75C4.65828 1.75 3.24953 3.13195 3.19047 3.19047C3.10823 3.27242 3.06191 3.38368 3.06171 3.49977C3.0615 3.61587 3.10743 3.72729 3.18937 3.80953C3.27132 3.89177 3.38258 3.93809 3.49868 3.93829C3.61478 3.9385 3.7262 3.89257 3.80844 3.81063C3.82047 3.79859 5.03125 2.625 7 2.625C8.91406 2.625 10.2944 3.97305 10.9681 4.8125H9.1875C9.07147 4.8125 8.96019 4.85859 8.87814 4.94064C8.79609 5.02269 8.75 5.13397 8.75 5.25C8.75 5.36603 8.79609 5.47731 8.87814 5.55936C8.96019 5.64141 9.07147 5.6875 9.1875 5.6875H11.8125C11.9285 5.6875 12.0398 5.64141 12.1219 5.55936C12.2039 5.47731 12.25 5.36603 12.25 5.25V2.625C12.25 2.50897 12.2039 2.39769 12.1219 2.31564C12.0398 2.23359 11.9285 2.1875 11.8125 2.1875Z" fill="#646464"/>
</svg>
