<svg width="25" height="29" viewBox="0 0 25 29" fill="none" xmlns="http://www.w3.org/2000/svg">
<path d="M24.5479 20.6804C23.8347 19.4107 22.7747 15.8179 22.7747 11.1255C22.7747 8.30741 21.6916 5.60479 19.7639 3.61212C17.8361 1.61946 15.2214 0.5 12.4951 0.5C9.7688 0.5 7.15416 1.61946 5.22637 3.61212C3.29858 5.60479 2.21555 8.30741 2.21555 11.1255C2.21555 15.8193 1.15419 19.4107 0.441046 20.6804C0.258932 21.0032 0.162386 21.3699 0.161145 21.7436C0.159904 22.1173 0.254012 22.4847 0.433978 22.8088C0.613943 23.1329 0.873404 23.4022 1.18619 23.5896C1.49898 23.7769 1.85404 23.8757 2.21555 23.876H7.45941C7.69658 25.0756 8.32729 26.1536 9.24488 26.9279C10.1625 27.7021 11.3106 28.125 12.4951 28.125C13.6796 28.125 14.8277 27.7021 15.7453 26.9279C16.6629 26.1536 17.2936 25.0756 17.5308 23.876H22.7747C23.1361 23.8755 23.491 23.7765 23.8036 23.5891C24.1162 23.4016 24.3755 23.1323 24.5553 22.8082C24.7351 22.4842 24.8291 22.1169 24.8278 21.7433C24.8265 21.3697 24.7299 21.0031 24.5479 20.6804ZM12.4951 26.0011C11.8575 26.0009 11.2357 25.7964 10.7152 25.4159C10.1947 25.0353 9.80109 24.4973 9.58857 23.876H15.4017C15.1891 24.4973 14.7955 25.0353 14.275 25.4159C13.7545 25.7964 13.1327 26.0009 12.4951 26.0011ZM2.21555 21.7509C3.20496 19.9924 4.27147 15.9175 4.27147 11.1255C4.27147 8.87102 5.13788 6.70892 6.68011 5.11479C8.22235 3.52066 10.3141 2.62509 12.4951 2.62509C14.6762 2.62509 16.7679 3.52066 18.3101 5.11479C19.8523 6.70892 20.7188 8.87102 20.7188 11.1255C20.7188 15.9136 21.7827 19.9884 22.7747 21.7509H2.21555Z" fill="#1C1C1C"/>
</svg>
