<svg width="32" height="33" viewBox="0 0 32 33" fill="none" xmlns="http://www.w3.org/2000/svg">
<path d="M21.75 6.24508C20.206 4.46188 18.4682 2.85615 16.5688 1.45758C16.4006 1.33979 16.2003 1.27661 15.995 1.27661C15.7897 1.27661 15.5894 1.33979 15.4213 1.45758C13.5253 2.85673 11.7909 4.46244 10.25 6.24508C6.81375 10.1913 5 14.3513 5 18.2763C5 21.1937 6.15893 23.9916 8.22183 26.0545C10.2847 28.1174 13.0826 29.2763 16 29.2763C18.9174 29.2763 21.7153 28.1174 23.7782 26.0545C25.8411 23.9916 27 21.1937 27 18.2763C27 14.3513 25.1863 10.1913 21.75 6.24508ZM16 27.2763C13.6139 27.2737 11.3262 26.3246 9.63896 24.6374C7.95171 22.9501 7.00265 20.6625 7 18.2763C7 11.1226 13.9338 5.15133 16 3.52633C18.0662 5.15133 25 11.1201 25 18.2763C24.9974 20.6625 24.0483 22.9501 22.361 24.6374C20.6738 26.3246 18.3861 27.2737 16 27.2763ZM22.9862 19.4438C22.7269 20.8922 22.0301 22.2264 20.9896 23.2667C19.949 24.307 18.6147 25.0036 17.1663 25.2626C17.1113 25.2714 17.0557 25.276 17 25.2763C16.7492 25.2763 16.5075 25.1819 16.323 25.012C16.1384 24.8421 16.0245 24.6091 16.0037 24.3591C15.9829 24.1091 16.0569 23.8605 16.2108 23.6625C16.3648 23.4644 16.5876 23.3315 16.835 23.2901C18.9062 22.9413 20.6637 21.1838 21.015 19.1088C21.0594 18.8473 21.2059 18.6141 21.4223 18.4605C21.6387 18.307 21.9072 18.2457 22.1688 18.2901C22.4303 18.3345 22.6635 18.481 22.8171 18.6974C22.9706 18.9138 23.0319 19.1823 22.9875 19.4438H22.9862Z" fill="black"/>
</svg>
