<svg width="32" height="32" viewBox="0 0 32 32" fill="none" xmlns="http://www.w3.org/2000/svg">
<path d="M30.7042 4.9999C30.6932 4.81684 30.6156 4.64415 30.4859 4.51447C30.3562 4.3848 30.1835 4.30713 30.0005 4.29615C23.6255 3.92115 18.5155 5.84865 16.3317 9.45365C14.878 11.8549 14.9092 14.7887 16.398 17.5787C15.4434 18.6714 14.7781 19.9861 14.463 21.4024L11.988 18.9262C13.0067 16.9137 13.0005 14.8074 11.948 13.0699C10.3467 10.4261 6.62547 9.00865 1.98797 9.28365C1.80471 9.29466 1.63186 9.37251 1.50215 9.50244C1.37245 9.63237 1.29491 9.80537 1.28422 9.98865C1.01172 14.6249 2.42673 18.3462 5.07048 19.9474C5.93151 20.4736 6.92136 20.7514 7.93047 20.7499C8.97553 20.7392 10.0034 20.4823 10.9305 19.9999L14.2505 23.3099V26.9999C14.2505 27.1988 14.3295 27.3896 14.4701 27.5302C14.6108 27.6709 14.8016 27.7499 15.0005 27.7499C15.1994 27.7499 15.3902 27.6709 15.5308 27.5302C15.6715 27.3896 15.7505 27.1988 15.7505 26.9999V23.3136C15.7455 21.5955 16.3556 19.9323 17.4705 18.6249C18.8717 19.3661 20.3105 19.7387 21.698 19.7387C23.0551 19.7431 24.3871 19.3724 25.5467 18.6674C29.1517 16.4861 31.0792 11.3749 30.7042 4.9999ZM5.84797 18.6636C3.80922 17.4299 2.67422 14.4999 2.75047 10.7499C6.50047 10.6686 9.42672 11.8049 10.6605 13.8436C11.3705 15.0149 11.4305 16.3911 10.853 17.7924L7.53048 14.4686C7.38974 14.3279 7.19887 14.2489 6.99985 14.2489C6.80083 14.2489 6.60996 14.3279 6.46922 14.4686C6.32849 14.6094 6.24943 14.8003 6.24943 14.9993C6.24943 15.1983 6.32849 15.3892 6.46922 15.5299L9.79673 18.8562C8.39548 19.4337 7.01922 19.3749 5.84797 18.6636ZM24.7705 17.3861C22.928 18.5011 20.753 18.5337 18.5617 17.4987L25.5317 10.5299C25.6014 10.4602 25.6567 10.3775 25.6944 10.2864C25.7321 10.1954 25.7515 10.0978 25.7515 9.99927C25.7515 9.90073 25.7321 9.80315 25.6944 9.7121C25.6567 9.62106 25.6014 9.53833 25.5317 9.46865C25.462 9.39897 25.3793 9.34369 25.2883 9.30598C25.1972 9.26827 25.0996 9.24886 25.0011 9.24886C24.9026 9.24886 24.805 9.26827 24.7139 9.30598C24.6229 9.34369 24.5402 9.39897 24.4705 9.46865L17.5005 16.4386C16.4655 14.2474 16.5005 12.0724 17.613 10.2311C19.428 7.23115 23.7455 5.58365 29.238 5.7624C29.4167 11.2499 27.768 15.5699 24.7705 17.3861Z" fill="black"/>
</svg>
